<svg width="306" height="309" viewBox="0 0 306 309" fill="none" xmlns="http://www.w3.org/2000/svg">
<path d="M296.029 59.21C290.549 56.47 283.999 57.17 279.149 60.93C275.279 63.9599 270.389 67.77 264.809 72.09C253.399 80.95 239.139 91.9399 224.989 102.69C220.269 106.29 215.539 109.88 210.779 113.46C210.629 113.58 210.459 113.69 210.309 113.81C205.579 117.38 200.819 120.94 196.059 124.46C190.949 128.24 185.819 132.13 180.569 135.85L145.879 160.46C142.019 163.18 137.589 164.5 133.199 164.5C126.329 164.5 119.569 161.28 115.289 155.26C108.289 145.38 110.619 131.69 120.489 124.67C121.439 124 122.379 123.33 123.329 122.66C125.899 120.84 128.459 119.02 131.029 117.2C134.819 114.52 138.599 111.83 142.389 109.15C146.989 105.89 151.589 102.62 156.199 99.36C161.219 95.8 166.229 92.2499 171.249 88.6899C176.279 85.1199 181.309 81.56 186.329 77.99C190.969 74.7 195.609 71.41 200.239 68.1199C204.089 65.3899 207.929 62.67 211.779 59.94C214.149 58.26 216.509 56.59 218.879 54.91C220.879 53.49 222.959 51.96 224.109 49.72C225.849 46.33 225.109 41.5299 223.589 38.18C222.069 34.83 219.289 32.08 215.919 30.39C210.459 27.65 203.889 28.35 199.049 32.11C198.509 32.53 197.949 32.97 197.359 33.44C193.909 36.15 189.779 39.35 185.169 42.94C161.559 61.26 125.409 89 103.659 104.65L102.159 105.72C101.159 106.43 100.209 107.11 99.2994 107.75L96.6494 109.61L66.2994 131.14C62.4394 133.88 58.0094 135.19 53.6194 135.19C46.9194 135.19 40.3094 132.12 36.0194 126.36C28.6394 116.46 31.3594 102.13 41.4394 94.99L47.0994 90.9799C48.1994 90.13 49.3194 89.3199 50.4694 88.5499L51.3194 87.99C56.7794 84.31 62.4794 81.11 67.0394 77.95C82.6194 67.1799 99.0094 57.15 114.059 45.65L139.969 25.88C140.939 25.14 141.789 24.28 142.499 23.32C144.029 21.28 144.889 18.8 144.889 16.19C144.909 10.23 141.609 4.73995 136.299 1.99995C131.129 -0.740046 124.709 -0.420046 119.779 2.91995C116.499 5.10995 38.6494 58.24 25.5794 67.86C3.75937 83.99 0.999375 100.74 0.689375 112.46C0.689375 112.55 0.609375 112.63 0.609375 112.63V308.39L278.609 242.58C294.139 238.9 305.099 225.04 305.099 209.09V73.5099C305.099 67.4299 301.589 61.86 296.019 59.21H296.029Z" fill="#017FD2"/>
<path d="M133.21 147.88C132.38 147.88 130.3 147.66 128.87 145.65C127.18 143.27 127.74 139.96 130.13 138.27L241.54 59.25C242.46 58.6 243.48 58.27 244.58 58.27C245.41 58.27 247.49 58.49 248.92 60.5C250.61 62.88 250.05 66.19 247.66 67.88L136.25 146.9C135.34 147.55 134.31 147.88 133.21 147.88Z" fill="#017FD2"/>
<path d="M53.6192 118.57C52.7892 118.57 50.7092 118.35 49.2792 116.34C47.5892 113.96 48.1493 110.65 50.5393 108.96L161.949 29.9302C162.859 29.2802 163.889 28.9502 164.989 28.9502C165.819 28.9502 167.899 29.1702 169.329 31.1802C171.019 33.5602 170.459 36.8702 168.069 38.5602L56.6693 117.59C55.7593 118.24 54.7293 118.57 53.6293 118.57H53.6192Z" fill="#017FD2"/>
</svg>
